<svg xmlns="http://www.w3.org/2000/svg" viewBox="0 0 16 16"><defs><style>.cls-1{fill:#006b71;}.cls-2{isolation:isolate;}</style></defs><g id="Layer_2" data-name="Layer 2"><g id="Objects"><g id="grade"><g id="Rectangle_26" data-name="Rectangle 26"><path class="cls-1" d="M8.16,16H7.84A7.93,7.93,0,0,1,0,8,7.93,7.93,0,0,1,7.84,0h.32A7.93,7.93,0,0,1,16,8,7.93,7.93,0,0,1,8.16,16ZM7.84,1A7,7,0,0,0,.94,8a7,7,0,0,0,6.9,7h.32a7,7,0,0,0,6.9-7,7,7,0,0,0-6.9-7Z"/></g><g id="_10" data-name=" 10" class="cls-2"><g class="cls-2"><path class="cls-1" d="M6.39,5.66V11h-1V6.5H4.3V5.66Z"/><path class="cls-1" d="M8.5,10.79a2.24,2.24,0,0,1-.78-.95,3.6,3.6,0,0,1-.28-1.49,3.52,3.52,0,0,1,.28-1.48,2.21,2.21,0,0,1,.78-1,2.17,2.17,0,0,1,2.27,0,2.21,2.21,0,0,1,.78,1,3.52,3.52,0,0,1,.29,1.48,3.6,3.6,0,0,1-.29,1.49,2.24,2.24,0,0,1-.78.95,2.12,2.12,0,0,1-2.27,0Zm2-1a2.59,2.59,0,0,0,.32-1.42,2.59,2.59,0,0,0-.32-1.42,1,1,0,0,0-.9-.48,1,1,0,0,0-.88.48,2.5,2.5,0,0,0-.33,1.42,2.5,2.5,0,0,0,.33,1.42,1,1,0,0,0,.88.48A1,1,0,0,0,10.53,9.77Z"/></g></g></g></g></g></svg>