<svg xmlns="http://www.w3.org/2000/svg" viewBox="0 0 80 80"><defs><style>.cls-1{fill:#8abbbe;}.cls-2{fill:#006b71;}</style></defs><g id="Layer_2" data-name="Layer 2"><g id="Objects"><g id="sucess"><rect class="cls-1" x="1.9" y="1.9" width="76.19" height="76.19" rx="38.1"/><path class="cls-2" d="M40,80A40,40,0,1,1,80,40,40,40,0,0,1,40,80ZM40,3.81A36.19,36.19,0,1,0,76.19,40,36.22,36.22,0,0,0,40,3.81Z"/><path class="cls-2" d="M19.26,42.39,31.67,54.8a3.78,3.78,0,0,0,5.34,0L60.72,31.1a3.83,3.83,0,0,0,0-5.39l-.49-.49a3.83,3.83,0,0,0-5.39,0l-20.5,20.5-9.21-9.21a3.78,3.78,0,0,0-5.34,0l-.53.53A3.78,3.78,0,0,0,19.26,42.39Z"/></g></g></g></svg>