<svg xmlns="http://www.w3.org/2000/svg" viewBox="0 0 20 16"><defs><style>.cls-1{fill:#006b71;}</style></defs><g id="Layer_2" data-name="Layer 2"><g id="Objects"><g id="calendar"><path class="cls-1" d="M5,2.17a.46.46,0,0,1-.47-.46V.46a.48.48,0,0,1,1,0V1.71A.46.46,0,0,1,5,2.17Z"/><path class="cls-1" d="M6.32,6.35H3.47a.46.46,0,1,1,0-.91H6.32a.46.46,0,1,1,0,.91Z"/><path class="cls-1" d="M11.46,6.35H8.6a.46.46,0,1,1,0-.91h2.86a.46.46,0,1,1,0,.91Z"/><path class="cls-1" d="M16.59,6.35H13.74a.46.46,0,1,1,0-.91h2.85a.46.46,0,1,1,0,.91Z"/><path class="cls-1" d="M6.32,9.35H3.47a.46.46,0,1,1,0-.91H6.32a.46.46,0,1,1,0,.91Z"/><path class="cls-1" d="M11.46,9.35H8.6a.46.46,0,1,1,0-.91h2.86a.46.46,0,1,1,0,.91Z"/><path class="cls-1" d="M16.59,9.35H13.74a.46.46,0,1,1,0-.91h2.85a.46.46,0,1,1,0,.91Z"/><path class="cls-1" d="M6.32,12.41H3.47a.46.46,0,1,1,0-.91H6.32a.46.46,0,1,1,0,.91Z"/><path class="cls-1" d="M11.46,12.41H8.6a.46.46,0,1,1,0-.91h2.86a.46.46,0,1,1,0,.91Z"/><path class="cls-1" d="M16.59,12.41H13.74a.46.46,0,1,1,0-.91h2.85a.46.46,0,1,1,0,.91Z"/><path class="cls-1" d="M15.15,2.17a.46.46,0,0,1-.47-.46V.46a.48.48,0,0,1,1,0V1.71A.46.46,0,0,1,15.15,2.17Z"/><path class="cls-1" d="M16.77,16H3.23A3.21,3.21,0,0,1,0,12.67V4.23A3.15,3.15,0,0,1,3.23,1.36H16.77A3.15,3.15,0,0,1,20,4.23v8.44A3.21,3.21,0,0,1,16.77,16ZM3.23,2.27A2.22,2.22,0,0,0,1,4.23v8.44a2.29,2.29,0,0,0,2.28,2.41H16.77a2.29,2.29,0,0,0,2.28-2.41V4.23a2.22,2.22,0,0,0-2.28-2Z"/></g></g></g></svg>