<svg xmlns="http://www.w3.org/2000/svg" viewBox="0 0 80 80"><defs><style>.cls-1{fill:#bc8a8a;}.cls-2{fill:#700000;}</style></defs><g id="Layer_2" data-name="Layer 2"><g id="Objects"><g id="failure"><rect class="cls-1" x="1.9" y="1.9" width="76.19" height="76.19" rx="38.1"/><path class="cls-2" d="M40,80A40,40,0,1,1,80,40,40,40,0,0,1,40,80ZM40,3.81A36.19,36.19,0,1,0,76.19,40,36.22,36.22,0,0,0,40,3.81Z"/><path class="cls-2" d="M55.94,51.43l-3.52-3.52L44.51,40l7.91-7.91,3.52-3.52a2.92,2.92,0,0,0,0-4.14l-.37-.38a2.93,2.93,0,0,0-4.14,0L40,35.49,28.57,24.06a3,3,0,0,0-4.15,0l-.37.38a2.93,2.93,0,0,0,0,4.14l3.52,3.52L35.47,40l-7.9,7.9-3.52,3.52a3,3,0,0,0,0,4.15l.37.37a3,3,0,0,0,4.15,0L40,44.53,51.42,56a2.93,2.93,0,0,0,4.14,0l.38-.37A3,3,0,0,0,55.94,51.43Z"/><path class="cls-2" d="M53.49,57.51a3.63,3.63,0,0,1-2.57-1.07L40,45.52,29.06,56.44a3.62,3.62,0,0,1-5.13,0l-.37-.37a3.62,3.62,0,0,1,0-5.13L34.49,40,23.56,29.08a3.63,3.63,0,0,1,0-5.14l.37-.37a3.62,3.62,0,0,1,5.13,0L40,34.5,50.92,23.57a3.63,3.63,0,0,1,5.14,0l.37.37a3.63,3.63,0,0,1,0,5.14L45.5,40,56.43,50.94a3.62,3.62,0,0,1,0,5.13l-.37.37A3.63,3.63,0,0,1,53.49,57.51ZM40,43.54,51.91,55.45a2.23,2.23,0,0,0,3.16,0l.37-.37a2.23,2.23,0,0,0,0-3.15L43.52,40,55.44,28.09a2.24,2.24,0,0,0,0-3.16l-.37-.37a2.24,2.24,0,0,0-3.16,0L40,36.48,28.07,24.56a2.23,2.23,0,0,0-3.15,0l-.38.37a2.25,2.25,0,0,0,0,3.16L36.47,40,24.55,51.93a2.23,2.23,0,0,0,0,3.15l.37.37a2.22,2.22,0,0,0,3.15,0Z"/></g></g></g></svg>