<svg xmlns="http://www.w3.org/2000/svg" viewBox="0 0 683 330.86"><defs><style>.cls-1{fill:#fff;}.cls-1,.cls-10,.cls-12,.cls-3,.cls-4,.cls-5,.cls-6,.cls-7,.cls-9{stroke:#006b71;stroke-width:3px;}.cls-1,.cls-10,.cls-12,.cls-3,.cls-4,.cls-5,.cls-6,.cls-7{stroke-linecap:round;stroke-linejoin:round;}.cls-2,.cls-5{fill:#006b71;}.cls-10,.cls-12,.cls-3,.cls-9{fill:none;}.cls-11,.cls-4{fill:#8abbbe;}.cls-6{fill:#f2f8f8;}.cls-7,.cls-8{fill:#fbf8f3;}.cls-10{stroke-dasharray:8;}.cls-12{stroke-dasharray:0 5;}</style></defs><g id="Layer_2" data-name="Layer 2"><g id="Objects"><g id="illustration"><g id="Group_4" data-name="Group 4"><rect id="Rectangle_1" data-name="Rectangle 1" class="cls-1" x="515.38" y="203.58" width="145.41" height="87.04"/><g id="Group_3" data-name="Group 3"><g id="Group_2" data-name="Group 2"><g id="Group_1" data-name="Group 1"><path id="Path_15" data-name="Path 15" class="cls-2" d="M613.37,230.67l3.8-3.46-1-5,5.1-.56,2.12-4.69,4.46,2.55,4.46-2.55,2.11,4.69,5.11.56-1,5,3.8,3.46-3.8,3.46,1,5-5.11.57-2.11,4.68-4.46-2.55-4.46,2.55-2.12-4.68-5.1-.57,1-5Z"/><path id="Path_16" data-name="Path 16" class="cls-3" d="M613.37,230.67l3.8-3.46-1-5,5.1-.56,2.12-4.69,4.46,2.55,4.46-2.55,2.11,4.69,5.11.56-1,5,3.8,3.46-3.8,3.46,1,5-5.11.57-2.11,4.68-4.46-2.55-4.46,2.55-2.12-4.68-5.1-.57,1-5Z"/></g><circle id="Ellipse_1" data-name="Ellipse 1" class="cls-4" cx="627.8" cy="230.67" r="6.23"/></g><rect id="Rectangle_2" data-name="Rectangle 2" class="cls-5" x="532.28" y="216.93" width="48.66" height="5.19"/><rect id="Rectangle_3" data-name="Rectangle 3" class="cls-5" x="532.28" y="230.67" width="48.66" height="5.19"/><line id="Line_1" data-name="Line 1" class="cls-3" x1="532.28" y1="256.49" x2="643.9" y2="256.49"/><line id="Line_2" data-name="Line 2" class="cls-3" x1="597.03" y1="263.6" x2="643.9" y2="263.6"/><line id="Line_3" data-name="Line 3" class="cls-3" x1="597.03" y1="270.44" x2="643.9" y2="270.44"/><line id="Line_4" data-name="Line 4" class="cls-3" x1="597.03" y1="277.28" x2="643.9" y2="277.28"/></g></g><g id="Group_6" data-name="Group 6"><g id="Group_5" data-name="Group 5"><circle id="Ellipse_2" data-name="Ellipse 2" class="cls-4" cx="461.41" cy="104.51" r="59.39"/><path id="Path_17" data-name="Path 17" class="cls-6" d="M520.79,104.51a59.39,59.39,0,0,0-59.38-59.39h0c-1.06,0-2.12,0-3.17.09-5.05,9-6.79,18.5-10,28.16a7.11,7.11,0,0,1,8.6,10.69c-2.3,3.16-6.62,3.86-10.08,5.68a16.4,16.4,0,0,0-8.09,17.67,29.85,29.85,0,0,1,.9,4c.1,1.18-.08,2.38.13,3.55.53,2.92,3.49,5,6.45,5.23s5.88-.87,8.49-2.3c3.47-1.91,7.19-4.49,11-3.5,3.34.85,6,4.33,9.43,3.8,2.46-.38,4.05-2.69,5.83-4.44s4.89-2.94,6.58-1.11A21,21,0,0,1,491.33,126a17.43,17.43,0,0,0,0,5.2c.4,1.69,1.84,3.31,3.58,3.2,4-.26,3.73-8,7.73-8.33,2.17-.16,3.69,2.38,3.49,4.54s-1.51,4-2.46,6c-1.68,3.42-.85,5.46,1.24,8.22C515.46,134.94,520.79,118.74,520.79,104.51Z"/></g><path id="Path_18" data-name="Path 18" class="cls-5" d="M500,59.4a59.37,59.37,0,0,1-83.72,83.71A59.37,59.37,0,1,0,500,59.4Z"/></g><g id="Group_12" data-name="Group 12"><rect id="Rectangle_4" data-name="Rectangle 4" class="cls-4" x="200.6" y="100.44" width="260.81" height="188.9" rx="17.27"/><path id="Path_19" data-name="Path 19" class="cls-7" d="M200.6,264.12v6.69a18.52,18.52,0,0,0,18.53,18.53H442.87a18.53,18.53,0,0,0,18.53-18.53h0v-6.69Z"/><g id="Group_9" data-name="Group 9"><g id="Group_7" data-name="Group 7"><rect id="Rectangle_5" data-name="Rectangle 5" class="cls-8" x="213.48" y="113.32" width="235.05" height="137.92"/></g><g id="Group_8" data-name="Group 8"><rect id="Rectangle_6" data-name="Rectangle 6" class="cls-3" x="213.48" y="113.32" width="235.05" height="137.92"/></g></g><circle id="Ellipse_3" data-name="Ellipse 3" class="cls-2" cx="331" cy="276.73" r="5.37"/><g id="Group_10" data-name="Group 10"><rect id="Rectangle_7" data-name="Rectangle 7" class="cls-6" x="242.75" y="80.27" width="88.25" height="143.82"/><rect id="Rectangle_8" data-name="Rectangle 8" class="cls-6" x="331" y="80.27" width="88.25" height="143.82"/></g><g id="Group_11" data-name="Group 11"><rect id="Rectangle_9" data-name="Rectangle 9" class="cls-1" x="252.41" y="73.65" width="78.59" height="142.57"/><rect id="Rectangle_10" data-name="Rectangle 10" class="cls-1" x="331" y="73.65" width="78.59" height="142.57"/><rect id="Rectangle_11" data-name="Rectangle 11" class="cls-4" x="265.31" y="87.77" width="29.74" height="41.16"/><line id="Line_5" data-name="Line 5" class="cls-3" x1="265.31" y1="144.94" x2="317.53" y2="144.94"/><line id="Line_6" data-name="Line 6" class="cls-3" x1="265.31" y1="158.98" x2="317.53" y2="158.98"/><line id="Line_7" data-name="Line 7" class="cls-3" x1="265.31" y1="173.02" x2="317.53" y2="173.02"/><line id="Line_8" data-name="Line 8" class="cls-3" x1="265.31" y1="187.06" x2="317.53" y2="187.06"/></g><path id="Path_20" data-name="Path 20" class="cls-2" d="M397.85,214.61,377.63,75.26h-.24V166l-44.91,48.65Z"/><path id="Path_21" data-name="Path 21" class="cls-1" d="M377.39,166,331,216.22V73.65l46.39-50.26Z"/><line id="Line_9" data-name="Line 9" class="cls-3" x1="232.26" y1="224.09" x2="429.74" y2="224.09"/><path id="Path_22" data-name="Path 22" class="cls-6" d="M287.62,76.6V67.22h-4.94a27.89,27.89,0,0,0-4.85-11.55l3.62-3.62-6.64-6.64-3.66,3.65a28,28,0,0,0-11.43-4.7V39.05h-9.4v5.31A27.87,27.87,0,0,0,239,49l-3.8-3.8-6.65,6.64,3.75,3.75A28,28,0,0,0,227.41,67h-5.26v9.39h5.11A27.82,27.82,0,0,0,231.88,88l-3.56,3.55L235,98.16l3.45-3.46a28,28,0,0,0,11.64,5v4.83h9.39V99.78A27.92,27.92,0,0,0,271.25,95l3.37,3.38,6.64-6.64-3.36-3.37a28.07,28.07,0,0,0,4.84-11.73Zm-13.9-6.44H261a6.28,6.28,0,0,0-4.09-4.1V53.35A18.79,18.79,0,0,1,273.72,70.16ZM253.14,53.35V66.07a6.31,6.31,0,0,0-4.1,4.1H236.33A18.78,18.78,0,0,1,253.14,53.35ZM236.33,73.92h12.72a6.23,6.23,0,0,0,4.1,4.09V90.74A18.78,18.78,0,0,1,236.33,73.92ZM256.9,90.73V78a6.28,6.28,0,0,0,4.09-4.1h12.72A18.79,18.79,0,0,1,256.9,90.74Z"/><path id="Path_23" data-name="Path 23" class="cls-6" d="M333.29,42.92V35.15h-5.23a15.62,15.62,0,0,0-1.77-4.41L330,27.08l-5.49-5.49-3.6,3.6a16,16,0,0,0-4.47-1.88V18.24h-7.78v5.07a16,16,0,0,0-4.47,1.88l-3.6-3.6-5.49,5.49,3.66,3.66a15.62,15.62,0,0,0-1.77,4.41h-5.23v7.77h5.35a16,16,0,0,0,1.82,4.25L295.05,51l5.49,5.49,3.89-3.89a15.6,15.6,0,0,0,4.19,1.71v5.52h7.77V54.31a15.4,15.4,0,0,0,4.18-1.71l3.89,3.89L330,51l-3.83-3.83a15.68,15.68,0,0,0,1.82-4.25Zm-20.79.92a5,5,0,1,1,5-5,5,5,0,0,1-5,5Z"/><path id="Rectangle_12" data-name="Rectangle 12" class="cls-7" d="M290.79,318.81h80.42a9.77,9.77,0,0,1,9.77,9.77v.78H281v-.78a9.76,9.76,0,0,1,9.76-9.77Z"/><rect id="Rectangle_13" data-name="Rectangle 13" class="cls-7" x="307.8" y="289.34" width="46.39" height="29.47"/><rect id="Rectangle_14" data-name="Rectangle 14" class="cls-5" x="307.8" y="289.34" width="46.39" height="11.22"/><line id="Line_10" data-name="Line 10" class="cls-3" x1="242.75" y1="238.85" x2="273.72" y2="238.85"/><line id="Line_11" data-name="Line 11" class="cls-3" x1="403.77" y1="238.85" x2="419.25" y2="238.85"/><line id="Line_12" data-name="Line 12" class="cls-3" x1="317.81" y1="238.85" x2="375.13" y2="238.85"/></g><path id="Path_45" data-name="Path 45" class="cls-9" d="M0,329.36H683"/><g id="Group_13" data-name="Group 13"><line id="Line_14" data-name="Line 14" class="cls-3" x1="184.32" y1="194.89" x2="168.58" y2="194.89"/><line id="Line_15" data-name="Line 15" class="cls-3" x1="182.01" y1="175.43" x2="170.88" y2="164.29"/><line id="Line_16" data-name="Line 16" class="cls-3" x1="170.88" y1="225.49" x2="182.01" y2="214.36"/></g><g id="Group_14" data-name="Group 14"><line id="Line_17" data-name="Line 17" class="cls-3" x1="511.29" y1="48.54" x2="522.42" y2="37.41"/><line id="Line_18" data-name="Line 18" class="cls-3" x1="526.69" y1="60.68" x2="542.43" y2="60.68"/><line id="Line_19" data-name="Line 19" class="cls-3" x1="499.16" y1="17.4" x2="499.16" y2="33.14"/></g><path id="Path_24" data-name="Path 24" class="cls-3" d="M488,106a9.09,9.09,0,0,1,6.71,7.29"/><path id="Path_25" data-name="Path 25" class="cls-3" d="M463.82,87.25s3.49-5.9,1.34-9.93"/><g id="Group_15" data-name="Group 15"><path id="Rectangle_15" data-name="Rectangle 15" class="cls-1" d="M484.5,314.34H510a7.08,7.08,0,0,1,7.08,7.08v7.94H476.83V322A7.67,7.67,0,0,1,484.5,314.34Z"/><rect id="Rectangle_16" data-name="Rectangle 16" class="cls-4" x="487.12" y="314.34" width="19.68" height="7.51"/><rect id="Rectangle_17" data-name="Rectangle 17" class="cls-5" x="493.95" y="310.58" width="6.02" height="3.76"/></g><path id="Path_26" data-name="Path 26" class="cls-10" d="M232.26,132.59H137.81a58.68,58.68,0,0,0-58.68,58.68h0v17.78"/><g id="Group_17" data-name="Group 17"><line id="Line_20" data-name="Line 20" class="cls-3" x1="19.92" y1="276.46" x2="162.13" y2="276.46"/><g id="Group_16" data-name="Group 16"><path id="Path_27" data-name="Path 27" class="cls-1" d="M130.83,236v-5.37H39.24a11.81,11.81,0,0,0,0,23.61h91.59v-5.36H44.07V236Z"/><rect id="Rectangle_18" data-name="Rectangle 18" class="cls-3" x="44.07" y="235.99" width="79.96" height="12.88"/><line id="Line_21" data-name="Line 21" class="cls-3" x1="124.03" y1="242.43" x2="44.07" y2="242.43"/><rect id="Rectangle_19" data-name="Rectangle 19" class="cls-1" x="44.07" y="235.99" width="6.71" height="12.88"/></g><path id="Path_28" data-name="Path 28" class="cls-1" d="M130.83,270H39.24l4.83-4.65-4.83-4.65h91.59Z"/><line id="Line_22" data-name="Line 22" class="cls-3" x1="73.23" y1="265.35" x2="97.92" y2="265.35"/><path id="Path_29" data-name="Path 29" class="cls-4" d="M137.6,254.24H39.24v6.46h91.59V270H39.24v6.47h98.37a11.12,11.12,0,0,0,11.11-11.12h0A11.11,11.11,0,0,0,137.6,254.24Z"/><path id="Path_30" data-name="Path 30" class="cls-6" d="M73.23,280l-6.44-4.38L60.35,280V260.7H73.23Z"/></g><line id="Line_23" data-name="Line 23" class="cls-3" x1="409.59" y1="289.34" x2="409.59" y2="329.36"/><line id="Line_24" data-name="Line 24" class="cls-3" x1="422.77" y1="289.34" x2="422.77" y2="329.36"/><path id="Path_31" data-name="Path 31" class="cls-10" d="M430.44,169.86H545a27.09,27.09,0,0,1,27.09,27.08V209"/><g id="Group_18" data-name="Group 18"><path id="Path_32" data-name="Path 32" class="cls-4" d="M154.92,80l-19.17,6.54a60.21,60.21,0,0,1-39.1,0L77.47,80l9.27-37.63h58.91Z"/><path id="Path_33" data-name="Path 33" class="cls-5" d="M154.35,47.38,116.2,35.29,78,47.38H61.1v5.36l55.1,17.45,55.1-17.45V47.38Z"/><path id="Path_34" data-name="Path 34" class="cls-4" d="M116.2,29.93,61.1,47.38l55.1,17.45,55.1-17.45Z"/><path id="Path_35" data-name="Path 35" class="cls-5" d="M78.82,74.47l17.82,6.08a60.21,60.21,0,0,0,39.1,0l17.82-6.08-1.42-5.79-16.4,5.59a60.21,60.21,0,0,1-39.1,0L80.25,68.68Z"/><path id="Path_36" data-name="Path 36" class="cls-3" d="M116.2,47.38,142,56.64V94.28"/><circle id="Ellipse_4" data-name="Ellipse 4" class="cls-5" cx="142.04" cy="91.31" r="3.62"/><path id="Path_37" data-name="Path 37" class="cls-5" d="M142,91.31a19.35,19.35,0,0,0-5.36,13.79h10.73A19.31,19.31,0,0,0,142,91.31Z"/></g><g id="Group_20" data-name="Group 20"><circle id="Ellipse_5" data-name="Ellipse 5" class="cls-1" cx="60.35" cy="37.41" r="24.04"/><g id="Group_19" data-name="Group 19"><path id="Path_38" data-name="Path 38" class="cls-11" d="M55.67,28.36v18.1H51.48V31.72H47.87V28.36Z"/><path id="Path_39" data-name="Path 39" class="cls-11" d="M62.57,45.65a7.45,7.45,0,0,1-2.75-3.21,13.18,13.18,0,0,1,0-10.06,7.45,7.45,0,0,1,2.75-3.21,7.74,7.74,0,0,1,8,0,7.48,7.48,0,0,1,2.76,3.21,13.27,13.27,0,0,1,0,10.06,7.56,7.56,0,0,1-2.76,3.22,7.78,7.78,0,0,1-8,0Zm6.6-3.85a10.67,10.67,0,0,0,0-8.78A3.06,3.06,0,0,0,64,33a10.75,10.75,0,0,0,0,8.78,3.06,3.06,0,0,0,4.23,1A2.94,2.94,0,0,0,69.17,41.8Z"/></g><circle id="Ellipse_6" data-name="Ellipse 6" class="cls-12" cx="60.35" cy="37.41" r="30.59"/></g><g id="Group_21" data-name="Group 21"><rect id="Rectangle_20" data-name="Rectangle 20" class="cls-1" x="568.91" y="50.94" width="68.33" height="88.01"/><rect id="Rectangle_21" data-name="Rectangle 21" class="cls-4" x="562.37" y="57.91" width="67.22" height="84.79"/><rect id="Rectangle_22" data-name="Rectangle 22" class="cls-5" x="591.19" y="80.27" width="38.41" height="12.88"/></g><line id="Line_25" data-name="Line 25" class="cls-10" x1="534.56" y1="122.31" x2="591.18" y2="122.31"/><path id="Path_40" data-name="Path 40" class="cls-10" d="M101.17,13.37H273.72V33.78"/><g id="Group_22" data-name="Group 22"><path id="Path_41" data-name="Path 41" class="cls-1" d="M422.33,13.37h49.48L418.68,25.44Z"/><path id="Path_42" data-name="Path 42" class="cls-1" d="M422.32,25.44l3.84,3.83,45.65-15.89Z"/></g><g id="Group_23" data-name="Group 23"><path id="Path_43" data-name="Path 43" class="cls-1" d="M604.5,1.5H555l53.13,12.07Z"/><path id="Path_44" data-name="Path 44" class="cls-1" d="M604.5,13.57l-3.84,3.83L555,1.5Z"/></g></g></g></g></svg>