<svg xmlns="http://www.w3.org/2000/svg" viewBox="0 0 16 18"><defs><style>.cls-1{fill:#006b71;}</style></defs><g id="Layer_2" data-name="Layer 2"><g id="Objects"><g id="password"><g id="user"><path class="cls-1" d="M13.36,18H2.64A2.67,2.67,0,0,1,0,15.19V8.3A2.62,2.62,0,0,1,2.64,5.87H13.36A2.62,2.62,0,0,1,16,8.3v6.89A2.67,2.67,0,0,1,13.36,18ZM2.64,6.8A1.67,1.67,0,0,0,.94,8.3v6.89a1.76,1.76,0,0,0,1.7,1.88H13.36a1.76,1.76,0,0,0,1.7-1.88V8.3a1.67,1.67,0,0,0-1.7-1.5Z"/><path class="cls-1" d="M13.65,6.53a.47.47,0,0,1-.47-.46,5.18,5.18,0,0,0-10.36,0,.47.47,0,0,1-.94,0,6.12,6.12,0,0,1,12.24,0A.47.47,0,0,1,13.65,6.53Z"/></g><path class="cls-1" d="M8.28,13a.47.47,0,0,1-.47-.47V11.08a.48.48,0,0,1,1,0v1.47A.47.47,0,0,1,8.28,13Z"/></g></g></g></svg>