<svg xmlns="http://www.w3.org/2000/svg" viewBox="0 0 16 18"><defs><style>.cls-1{fill:#006b71;}</style></defs><g id="Layer_2" data-name="Layer 2"><g id="Objects"><g id="user"><path class="cls-1" d="M8,8.36A4.22,4.22,0,0,1,3.76,4.18a4.24,4.24,0,0,1,8.48,0A4.22,4.22,0,0,1,8,8.36ZM8,.93A3.27,3.27,0,0,0,4.71,4.18a3.29,3.29,0,0,0,6.58,0A3.27,3.27,0,0,0,8,.93Z"/><path class="cls-1" d="M15.53,18a.47.47,0,0,1-.47-.46,7.06,7.06,0,0,0-14.12,0A.47.47,0,0,1,.47,18,.47.47,0,0,1,0,17.54a8,8,0,0,1,8-7.9,8,8,0,0,1,8,7.9A.47.47,0,0,1,15.53,18Z"/></g></g></g></svg>